<svg xmlns:rdf="http://www.w3.org/1999/02/22-rdf-syntax-ns#" xmlns="http://www.w3.org/2000/svg" xml:space="preserve" height="87.119" width="365.29" version="1.1" y="0px" x="0px" xmlns:cc="http://creativecommons.org/ns#" xmlns:dc="http://purl.org/dc/elements/1.1/" viewBox="0 0 365.29152 87.122519"><g transform="translate(-71.999 -252.55)"><g transform="translate(0,-36.925)"><g transform="translate(1.017e-6,-32.025)"><g transform="translate(14.105)"><g transform="translate(17.432,4.5778)"><g transform="translate(-139.08,1.1733e-8)"><g transform="translate(-156.41,-4.5778)"><g transform="matrix(1.0844,0,0,1.0844,-177.14,48.888)"><g transform="matrix(.88889 0 0 .88889 23.318 62.123)"><g transform="translate(142.16,-4.4775)"><g transform="matrix(.38781 0 0 .38781 310.34 163.85)"><path fill="#6eb1e1" d="m320.58 254.64a65.933 65.933 0 0 1 -65.94 65.94 65.933 65.933 0 0 1 -65.93 -65.94 65.933 65.933 0 0 1 65.93 -65.93 65.933 65.933 0 0 1 65.94 65.93z"/><path fill="#4484c5" d="m337.5 254.64h33.672c0.01-64.39-52.13-116.53-116.53-116.53v33.672c45.775 0 82.86 37.085 82.86 82.86z"/><path fill="#4f5565" d="m371.18 254.64h-33.672c0 23.741-10.086 45.154-26.068 60.361l23.12 24.517c22.5-21.258 36.62-51.361 36.62-84.877z"/><path fill="#f0582f" d="m171.78 254.64c0-45.775 37.085-82.86 82.86-82.86v-33.672c-64.396 0-116.53 52.137-116.53 116.53 0 49.499 30.878 91.86 74.636 108.77l12.103-31.499c-31.034-11.948-53.068-42.051-53.068-77.274z"/><path fill="#29b36f" d="m254.64 337.5c-10.552 0-20.483-2.0172-29.793-5.5863l-12.103 31.499c13.034 4.9653 27.155 7.7586 41.896 7.7586 30.878 0 58.964-12.103 79.912-31.655l-23.12-24.51c-14.897 13.965-34.758 22.5-56.792 22.5z"/></g><path fill="#fff" d="m145.52 135.79-58.065 58.07-37.079-37.08 20.987-20.99 16.092 16.09 37.075-37.08z" transform="matrix(.56098 0 0 .56098 354.15 176.03)"/></g></g></g></g><g fill="#4f5565"><path d="m294.66 376.53q4.1831 0 6.9941-2.3425 2.8445-2.376 3.0787-6.124h3.8484q-0.16732 3.313-2.0748 6.0571-1.9075 2.7106-5.0866 4.25-3.1457 1.5394-6.7598 1.5394-7.1279 0-11.311-4.9527-4.1496-4.9528-4.1496-13.319v-1.2047q0-5.3543 1.874-9.4705 1.874-4.1161 5.3543-6.3582 3.5138-2.2421 8.1988-2.2421 5.9567 0 9.8051 3.5472 3.8819 3.5472 4.1496 9.3366h-3.8484q-0.26771-4.25-3.0787-6.8602-2.7776-2.6102-7.0275-2.6102-5.4212 0-8.4331 3.9153-2.9783 3.9154-2.9783 10.976v1.1712q0 6.9272 2.9783 10.809 3.0118 3.8819 8.4665 3.8819z"/><path d="m321.09 379.24h-4.0157v-36.209h4.0157v36.209zm-4.7185-46.683q0-1.1378 0.73622-1.9075 0.73622-0.80315 2.0079-0.80315 1.2716 0 2.0079 0.80315 0.76968 0.76968 0.76968 1.9075t-0.76968 1.9075q-0.73622 0.76968-2.0079 0.76968-1.2716 0-2.0079-0.76968-0.73622-0.76969-0.73622-1.9075z"/><path d="m348.73 346.44q-1.2716-0.23425-2.7106-0.23425-3.748 0-6.3583 2.1083-2.5768 2.0748-3.6811 6.0571v24.864h-3.9823v-36.209h3.9154l0.0669 5.7559q3.1791-6.4252 10.207-6.4252 1.6732 0 2.6437 0.43504l-0.10039 3.6476z"/><path d="m367.74 376.53q4.1831 0 6.9941-2.3425 2.8445-2.376 3.0787-6.124h3.8484q-0.16732 3.313-2.0748 6.0571-1.9075 2.7106-5.0866 4.25-3.1457 1.5394-6.7598 1.5394-7.1279 0-11.311-4.9527-4.1496-4.9528-4.1496-13.319v-1.2047q0-5.3543 1.874-9.4705 1.874-4.1161 5.3543-6.3582 3.5138-2.2421 8.1988-2.2421 5.9567 0 9.8051 3.5472 3.8819 3.5472 4.1496 9.3366h-3.8484q-0.26771-4.25-3.0787-6.8602-2.7776-2.6102-7.0276-2.6102-5.4212 0-8.433 3.9153-2.9783 3.9154-2.9783 10.976v1.1712q0 6.9272 2.9783 10.809 3.0118 3.8819 8.4665 3.8819z"/><path d="m394.18 379.24h-4.0157v-51.401h4.0157v51.401z"/><path d="m419.11 379.91q-4.6181 0-8.3661-2.2756-3.7146-2.2756-5.7894-6.3248-2.0748-4.0827-2.0748-9.1358v-1.439q0-5.2205 2.0079-9.4035 2.0413-4.1831 5.6555-6.559 3.6142-2.4094 7.8307-2.4094 6.5925 0 10.441 4.5177 3.8819 4.4842 3.8819 12.281v2.2421h-25.835v0.76968q0 6.1575 3.5138 10.274 3.5472 4.0827 8.9016 4.0827 3.2126 0 5.6555-1.1713 2.4764-1.1713 4.4842-3.748l2.5098 1.9075q-4.4173 6.3917-12.817 6.3917zm-0.73622-34.134q-4.5177 0-7.6299 3.313-3.0787 3.313-3.748 8.9016h21.718v-0.43504q-0.16732-5.2205-2.9783-8.5t-7.3622-3.2795z"/><path d="m471.65 361.47q0 8.3661-3.815 13.419-3.7815 5.0197-10.24 5.0197-5.4882 0-8.8681-3.815v17.067h-9.6712v-50.13h8.9685l0.33464 3.5472q3.5138-4.2165 9.1693-4.2165 6.6929 0 10.407 4.9527 3.7146 4.9528 3.7146 13.654v0.50197zm-9.6712-0.70276q0-5.0531-1.8071-7.7972-1.7736-2.7441-5.187-2.7441-4.5512 0-6.2579 3.4803v14.825q1.7736 3.5807 6.3248 3.5807 6.9272 0 6.9272-11.344z"/><path d="m476.1 360.8q0-5.3878 2.0748-9.6043t5.9567-6.5256q3.9154-2.309 9.0689-2.309 7.3287 0 11.947 4.4842 4.6516 4.4842 5.187 12.181l0.0669 2.4764q0 8.3327-4.6516 13.386-4.6516 5.0197-12.482 5.0197-7.8307 0-12.516-5.0197-4.6516-5.0197-4.6516-13.654v-0.43503zm9.6712 0.70275q0 5.1535 1.9409 7.8976 1.9409 2.7106 5.5551 2.7106 3.5138 0 5.4882-2.6772 1.9744-2.7106 1.9744-8.6338 0-5.0531-1.9744-7.8307t-5.5551-2.7776q-3.5472 0-5.4882 2.7776-1.9409 2.7441-1.9409 8.5334z"/><path d="m526.63 379.24h-9.7047v-51.401h9.7047v51.401z"/><path d="m544.84 379.24h-9.7047v-51.401h9.7047v51.401z"/></g></g></g></g></g></g></g></svg>
